<?xml version="1.0" standalone="no"?>
<!DOCTYPE svg PUBLIC "-//W3C//DTD SVG 20010904//EN"
 "http://www.w3.org/TR/2001/REC-SVG-20010904/DTD/svg10.dtd">
<svg version="1.0" xmlns="http://www.w3.org/2000/svg"
 width="400.000000pt" height="400.000000pt" viewBox="0 0 400.000000 400.000000"
 preserveAspectRatio="xMidYMid meet">

<g transform="translate(0.000000,400.000000) scale(0.100000,-0.100000)"
fill="#000000" stroke="none">
<path d="M843 2468 c-40 -11 -99 -74 -127 -138 -40 -89 -49 -192 -43 -485 6
-297 23 -400 80 -496 66 -110 213 -173 348 -149 115 20 190 69 265 174 l21 29
64 -52 c149 -122 320 -167 528 -142 169 20 269 68 378 178 121 123 187 261
238 498 10 44 19 83 21 87 3 4 23 -13 46 -38 22 -24 104 -89 182 -143 120 -84
146 -107 169 -149 51 -94 27 -200 -56 -244 -62 -34 -186 -31 -283 5 -90 34
-127 34 -159 2 -30 -30 -32 -73 -5 -108 40 -51 201 -97 341 -97 185 0 305 60
370 188 21 40 24 61 24 147 0 88 -3 107 -27 159 -41 86 -147 186 -308 291
-248 161 -272 178 -297 216 -27 41 -33 109 -13 151 7 15 -2 9 -25 -16 -57 -63
-96 -161 -130 -321 -40 -187 -69 -285 -105 -361 -144 -299 -560 -380 -767
-149 -159 176 -155 513 8 677 79 79 150 108 289 117 l95 6 -88 14 c-160 24
-313 -11 -433 -100 -64 -47 -114 -110 -157 -199 -31 -63 -32 -68 -32 -200 0
-83 5 -149 13 -171 10 -30 10 -41 -3 -73 -35 -82 -145 -166 -220 -166 -47 0
-116 40 -137 80 -17 32 -18 67 -18 422 l0 388 144 0 c80 0 156 4 171 10 15 6
32 24 41 45 12 31 12 39 0 70 -9 21 -23 36 -38 39 -37 9 -336 12 -365 4z"/>
<path d="M3154 2386 c-3 -13 -4 -40 -2 -62 2 -31 7 -39 23 -39 12 0 25 11 33
27 11 23 10 32 -2 56 -21 40 -44 48 -52 18z"/>
<path d="M2183 2393 c-9 -3 -13 -27 -13 -70 0 -68 9 -85 47 -95 17 -5 29 1 48
24 29 34 32 64 9 96 -13 18 -66 54 -76 51 -2 0 -9 -3 -15 -6z"/>
</g>
</svg>
